<?xml version="1.0" encoding="utf-8" standalone="no"?>
<!DOCTYPE svg PUBLIC "-//W3C//DTD SVG 1.1//EN"
  "http://www.w3.org/Graphics/SVG/1.1/DTD/svg11.dtd">
<svg xmlns:xlink="http://www.w3.org/1999/xlink" width="249.440391pt" height="158.762691pt" viewBox="0 0 249.440391 158.762691" xmlns="http://www.w3.org/2000/svg" version="1.1">
 <metadata>
  <rdf:RDF xmlns:dc="http://purl.org/dc/elements/1.1/" xmlns:cc="http://creativecommons.org/ns#" xmlns:rdf="http://www.w3.org/1999/02/22-rdf-syntax-ns#">
   <cc:Work>
    <dc:type rdf:resource="http://purl.org/dc/dcmitype/StillImage"/>
    <dc:date>2025-09-30T11:03:52.817791</dc:date>
    <dc:format>image/svg+xml</dc:format>
    <dc:creator>
     <cc:Agent>
      <dc:title>Matplotlib v3.10.3, https://matplotlib.org/</dc:title>
     </cc:Agent>
    </dc:creator>
   </cc:Work>
  </rdf:RDF>
 </metadata>
 <defs>
  <style type="text/css">*{stroke-linejoin: round; stroke-linecap: butt}</style>
 </defs>
 <g id="figure_1">
  <g id="patch_1">
   <path d="M 0 158.762691 
L 249.440391 158.762691 
L 249.440391 0 
L 0 0 
z
" style="fill: #ffffff"/>
  </g>
  <g id="axes_1">
   <g id="patch_2">
    <path d="M 33.920391 125.57605 
L 242.240391 125.57605 
L 242.240391 37.97453 
L 33.920391 37.97453 
z
" style="fill: #ffffff"/>
   </g>
   <g id="matplotlib.axis_1">
    <g id="xtick_1">
     <g id="line2d_1">
      <defs>
       <path id="m418111536a" d="M 0 0 
L 0 3.5 
" style="stroke: #000000; stroke-width: 0.8"/>
      </defs>
      <g>
       <use xlink:href="#m418111536a" x="54.080391" y="125.57605" style="stroke: #000000; stroke-width: 0.8"/>
      </g>
     </g>
     <g id="text_1">
      <text style="font-size: 8px; font-family: 'Times New Roman', 'Times', 'Computer Modern Roman', serif; text-anchor: middle" x="54.080391" y="138.13105" transform="rotate(-0 54.080391 138.13105)">2020</text>
     </g>
    </g>
    <g id="xtick_2">
     <g id="line2d_2">
      <g>
       <use xlink:href="#m418111536a" x="87.680391" y="125.57605" style="stroke: #000000; stroke-width: 0.8"/>
      </g>
     </g>
     <g id="text_2">
      <text style="font-size: 8px; font-family: 'Times New Roman', 'Times', 'Computer Modern Roman', serif; text-anchor: middle" x="87.680391" y="138.13105" transform="rotate(-0 87.680391 138.13105)">2021</text>
     </g>
    </g>
    <g id="xtick_3">
     <g id="line2d_3">
      <g>
       <use xlink:href="#m418111536a" x="121.280391" y="125.57605" style="stroke: #000000; stroke-width: 0.8"/>
      </g>
     </g>
     <g id="text_3">
      <text style="font-size: 8px; font-family: 'Times New Roman', 'Times', 'Computer Modern Roman', serif; text-anchor: middle" x="121.280391" y="138.13105" transform="rotate(-0 121.280391 138.13105)">2022</text>
     </g>
    </g>
    <g id="xtick_4">
     <g id="line2d_4">
      <g>
       <use xlink:href="#m418111536a" x="154.880391" y="125.57605" style="stroke: #000000; stroke-width: 0.8"/>
      </g>
     </g>
     <g id="text_4">
      <text style="font-size: 8px; font-family: 'Times New Roman', 'Times', 'Computer Modern Roman', serif; text-anchor: middle" x="154.880391" y="138.13105" transform="rotate(-0 154.880391 138.13105)">2023</text>
     </g>
    </g>
    <g id="xtick_5">
     <g id="line2d_5">
      <g>
       <use xlink:href="#m418111536a" x="188.480391" y="125.57605" style="stroke: #000000; stroke-width: 0.8"/>
      </g>
     </g>
     <g id="text_5">
      <text style="font-size: 8px; font-family: 'Times New Roman', 'Times', 'Computer Modern Roman', serif; text-anchor: middle" x="188.480391" y="138.13105" transform="rotate(-0 188.480391 138.13105)">2024</text>
     </g>
    </g>
    <g id="xtick_6">
     <g id="line2d_6">
      <g>
       <use xlink:href="#m418111536a" x="222.080391" y="125.57605" style="stroke: #000000; stroke-width: 0.8"/>
      </g>
     </g>
     <g id="text_6">
      <text style="font-size: 8px; font-family: 'Times New Roman', 'Times', 'Computer Modern Roman', serif; text-anchor: middle" x="222.080391" y="138.13105" transform="rotate(-0 222.080391 138.13105)">2025</text>
     </g>
    </g>
    <g id="text_7">
     <text style="font-size: 8.5px; font-family: 'Times New Roman', 'Times', 'Computer Modern Roman', serif; text-anchor: middle" x="138.080391" y="149.744488" transform="rotate(-0 138.080391 149.744488)">Publication Year</text>
    </g>
   </g>
   <g id="matplotlib.axis_2">
    <g id="ytick_1">
     <g id="line2d_7">
      <path d="M 33.920391 125.57605 
L 242.240391 125.57605 
" clip-path="url(#p12071e88ce)" style="fill: none; stroke: #e6e6e6; stroke-width: 0.7; stroke-linecap: square"/>
     </g>
     <g id="line2d_8">
      <defs>
       <path id="ma30d7a1667" d="M 0 0 
L -3.5 0 
" style="stroke: #000000; stroke-width: 0.8"/>
      </defs>
      <g>
       <use xlink:href="#ma30d7a1667" x="33.920391" y="125.57605" style="stroke: #000000; stroke-width: 0.8"/>
      </g>
     </g>
     <g id="text_8">
      <text style="font-size: 8px; font-family: 'Times New Roman', 'Times', 'Computer Modern Roman', serif; text-anchor: end" x="26.920391" y="128.35355" transform="rotate(-0 26.920391 128.35355)">0</text>
     </g>
    </g>
    <g id="ytick_2">
     <g id="line2d_9">
      <path d="M 33.920391 114.62586 
L 242.240391 114.62586 
" clip-path="url(#p12071e88ce)" style="fill: none; stroke: #e6e6e6; stroke-width: 0.7; stroke-linecap: square"/>
     </g>
     <g id="line2d_10">
      <g>
       <use xlink:href="#ma30d7a1667" x="33.920391" y="114.62586" style="stroke: #000000; stroke-width: 0.8"/>
      </g>
     </g>
     <g id="text_9">
      <text style="font-size: 8px; font-family: 'Times New Roman', 'Times', 'Computer Modern Roman', serif; text-anchor: end" x="26.920391" y="117.40336" transform="rotate(-0 26.920391 117.40336)">2</text>
     </g>
    </g>
    <g id="ytick_3">
     <g id="line2d_11">
      <path d="M 33.920391 103.67567 
L 242.240391 103.67567 
" clip-path="url(#p12071e88ce)" style="fill: none; stroke: #e6e6e6; stroke-width: 0.7; stroke-linecap: square"/>
     </g>
     <g id="line2d_12">
      <g>
       <use xlink:href="#ma30d7a1667" x="33.920391" y="103.67567" style="stroke: #000000; stroke-width: 0.8"/>
      </g>
     </g>
     <g id="text_10">
      <text style="font-size: 8px; font-family: 'Times New Roman', 'Times', 'Computer Modern Roman', serif; text-anchor: end" x="26.920391" y="106.45317" transform="rotate(-0 26.920391 106.45317)">4</text>
     </g>
    </g>
    <g id="ytick_4">
     <g id="line2d_13">
      <path d="M 33.920391 92.72548 
L 242.240391 92.72548 
" clip-path="url(#p12071e88ce)" style="fill: none; stroke: #e6e6e6; stroke-width: 0.7; stroke-linecap: square"/>
     </g>
     <g id="line2d_14">
      <g>
       <use xlink:href="#ma30d7a1667" x="33.920391" y="92.72548" style="stroke: #000000; stroke-width: 0.8"/>
      </g>
     </g>
     <g id="text_11">
      <text style="font-size: 8px; font-family: 'Times New Roman', 'Times', 'Computer Modern Roman', serif; text-anchor: end" x="26.920391" y="95.50298" transform="rotate(-0 26.920391 95.50298)">6</text>
     </g>
    </g>
    <g id="ytick_5">
     <g id="line2d_15">
      <path d="M 33.920391 81.77529 
L 242.240391 81.77529 
" clip-path="url(#p12071e88ce)" style="fill: none; stroke: #e6e6e6; stroke-width: 0.7; stroke-linecap: square"/>
     </g>
     <g id="line2d_16">
      <g>
       <use xlink:href="#ma30d7a1667" x="33.920391" y="81.77529" style="stroke: #000000; stroke-width: 0.8"/>
      </g>
     </g>
     <g id="text_12">
      <text style="font-size: 8px; font-family: 'Times New Roman', 'Times', 'Computer Modern Roman', serif; text-anchor: end" x="26.920391" y="84.55279" transform="rotate(-0 26.920391 84.55279)">8</text>
     </g>
    </g>
    <g id="ytick_6">
     <g id="line2d_17">
      <path d="M 33.920391 70.8251 
L 242.240391 70.8251 
" clip-path="url(#p12071e88ce)" style="fill: none; stroke: #e6e6e6; stroke-width: 0.7; stroke-linecap: square"/>
     </g>
     <g id="line2d_18">
      <g>
       <use xlink:href="#ma30d7a1667" x="33.920391" y="70.8251" style="stroke: #000000; stroke-width: 0.8"/>
      </g>
     </g>
     <g id="text_13">
      <text style="font-size: 8px; font-family: 'Times New Roman', 'Times', 'Computer Modern Roman', serif; text-anchor: end" x="26.920391" y="73.6026" transform="rotate(-0 26.920391 73.6026)">10</text>
     </g>
    </g>
    <g id="ytick_7">
     <g id="line2d_19">
      <path d="M 33.920391 59.87491 
L 242.240391 59.87491 
" clip-path="url(#p12071e88ce)" style="fill: none; stroke: #e6e6e6; stroke-width: 0.7; stroke-linecap: square"/>
     </g>
     <g id="line2d_20">
      <g>
       <use xlink:href="#ma30d7a1667" x="33.920391" y="59.87491" style="stroke: #000000; stroke-width: 0.8"/>
      </g>
     </g>
     <g id="text_14">
      <text style="font-size: 8px; font-family: 'Times New Roman', 'Times', 'Computer Modern Roman', serif; text-anchor: end" x="26.920391" y="62.65241" transform="rotate(-0 26.920391 62.65241)">12</text>
     </g>
    </g>
    <g id="ytick_8">
     <g id="line2d_21">
      <path d="M 33.920391 48.92472 
L 242.240391 48.92472 
" clip-path="url(#p12071e88ce)" style="fill: none; stroke: #e6e6e6; stroke-width: 0.7; stroke-linecap: square"/>
     </g>
     <g id="line2d_22">
      <g>
       <use xlink:href="#ma30d7a1667" x="33.920391" y="48.92472" style="stroke: #000000; stroke-width: 0.8"/>
      </g>
     </g>
     <g id="text_15">
      <text style="font-size: 8px; font-family: 'Times New Roman', 'Times', 'Computer Modern Roman', serif; text-anchor: end" x="26.920391" y="51.70222" transform="rotate(-0 26.920391 51.70222)">14</text>
     </g>
    </g>
    <g id="ytick_9">
     <g id="line2d_23">
      <path d="M 33.920391 37.97453 
L 242.240391 37.97453 
" clip-path="url(#p12071e88ce)" style="fill: none; stroke: #e6e6e6; stroke-width: 0.7; stroke-linecap: square"/>
     </g>
     <g id="line2d_24">
      <g>
       <use xlink:href="#ma30d7a1667" x="33.920391" y="37.97453" style="stroke: #000000; stroke-width: 0.8"/>
      </g>
     </g>
     <g id="text_16">
      <text style="font-size: 8px; font-family: 'Times New Roman', 'Times', 'Computer Modern Roman', serif; text-anchor: end" x="26.920391" y="40.75203" transform="rotate(-0 26.920391 40.75203)">16</text>
     </g>
    </g>
    <g id="text_17">
     <text style="font-size: 8.5px; font-family: 'Times New Roman', 'Times', 'Computer Modern Roman', serif; text-anchor: middle" x="13.102188" y="81.77529" transform="rotate(-90 13.102188 81.77529)">Number of Papers</text>
    </g>
   </g>
   <g id="patch_3">
    <path d="M 33.920391 125.57605 
L 33.920391 37.97453 
" style="fill: none; stroke: #aaaaaa; stroke-width: 0.8; stroke-linejoin: miter; stroke-linecap: square"/>
   </g>
   <g id="patch_4">
    <path d="M 33.920391 125.57605 
L 242.240391 125.57605 
" style="fill: none; stroke: #aaaaaa; stroke-width: 0.8; stroke-linejoin: miter; stroke-linecap: square"/>
   </g>
   <g id="patch_5">
    <path d="M 42.992391 125.57605 
L 50.384391 125.57605 
L 50.384391 125.57605 
L 42.992391 125.57605 
z
" clip-path="url(#p12071e88ce)" style="fill: #1f77b4; stroke: #444444; stroke-width: 0.6; stroke-linejoin: miter"/>
   </g>
   <g id="patch_6">
    <path d="M 76.592391 125.57605 
L 83.984391 125.57605 
L 83.984391 125.57605 
L 76.592391 125.57605 
z
" clip-path="url(#p12071e88ce)" style="fill: #1f77b4; stroke: #444444; stroke-width: 0.6; stroke-linejoin: miter"/>
   </g>
   <g id="patch_7">
    <path d="M 110.192391 125.57605 
L 117.584391 125.57605 
L 117.584391 114.62586 
L 110.192391 114.62586 
z
" clip-path="url(#p12071e88ce)" style="fill: #1f77b4; stroke: #444444; stroke-width: 0.6; stroke-linejoin: miter"/>
   </g>
   <g id="patch_8">
    <path d="M 143.792391 125.57605 
L 151.184391 125.57605 
L 151.184391 114.62586 
L 143.792391 114.62586 
z
" clip-path="url(#p12071e88ce)" style="fill: #1f77b4; stroke: #444444; stroke-width: 0.6; stroke-linejoin: miter"/>
   </g>
   <g id="patch_9">
    <path d="M 177.392391 125.57605 
L 184.784391 125.57605 
L 184.784391 76.300195 
L 177.392391 76.300195 
z
" clip-path="url(#p12071e88ce)" style="fill: #1f77b4; stroke: #444444; stroke-width: 0.6; stroke-linejoin: miter"/>
   </g>
   <g id="patch_10">
    <path d="M 210.992391 125.57605 
L 218.384391 125.57605 
L 218.384391 109.150765 
L 210.992391 109.150765 
z
" clip-path="url(#p12071e88ce)" style="fill: #1f77b4; stroke: #444444; stroke-width: 0.6; stroke-linejoin: miter"/>
   </g>
   <g id="patch_11">
    <path d="M 50.384391 125.57605 
L 57.776391 125.57605 
L 57.776391 125.57605 
L 50.384391 125.57605 
z
" clip-path="url(#p12071e88ce)" style="fill: url(#h84c9d1fc48); stroke: #444444; stroke-width: 0.6; stroke-linejoin: miter"/>
   </g>
   <g id="patch_12">
    <path d="M 83.984391 125.57605 
L 91.376391 125.57605 
L 91.376391 125.57605 
L 83.984391 125.57605 
z
" clip-path="url(#p12071e88ce)" style="fill: url(#h84c9d1fc48); stroke: #444444; stroke-width: 0.6; stroke-linejoin: miter"/>
   </g>
   <g id="patch_13">
    <path d="M 117.584391 125.57605 
L 124.976391 125.57605 
L 124.976391 120.100955 
L 117.584391 120.100955 
z
" clip-path="url(#p12071e88ce)" style="fill: url(#h84c9d1fc48); stroke: #444444; stroke-width: 0.6; stroke-linejoin: miter"/>
   </g>
   <g id="patch_14">
    <path d="M 151.184391 125.57605 
L 158.576391 125.57605 
L 158.576391 109.150765 
L 151.184391 109.150765 
z
" clip-path="url(#p12071e88ce)" style="fill: url(#h84c9d1fc48); stroke: #444444; stroke-width: 0.6; stroke-linejoin: miter"/>
   </g>
   <g id="patch_15">
    <path d="M 184.784391 125.57605 
L 192.176391 125.57605 
L 192.176391 120.100955 
L 184.784391 120.100955 
z
" clip-path="url(#p12071e88ce)" style="fill: url(#h84c9d1fc48); stroke: #444444; stroke-width: 0.6; stroke-linejoin: miter"/>
   </g>
   <g id="patch_16">
    <path d="M 218.384391 125.57605 
L 225.776391 125.57605 
L 225.776391 125.57605 
L 218.384391 125.57605 
z
" clip-path="url(#p12071e88ce)" style="fill: url(#h84c9d1fc48); stroke: #444444; stroke-width: 0.6; stroke-linejoin: miter"/>
   </g>
   <g id="patch_17">
    <path d="M 57.776391 125.57605 
L 65.168391 125.57605 
L 65.168391 125.57605 
L 57.776391 125.57605 
z
" clip-path="url(#p12071e88ce)" style="fill: url(#h1afd1c4c50); stroke: #444444; stroke-width: 0.6; stroke-linejoin: miter"/>
   </g>
   <g id="patch_18">
    <path d="M 91.376391 125.57605 
L 98.768391 125.57605 
L 98.768391 125.57605 
L 91.376391 125.57605 
z
" clip-path="url(#p12071e88ce)" style="fill: url(#h1afd1c4c50); stroke: #444444; stroke-width: 0.6; stroke-linejoin: miter"/>
   </g>
   <g id="patch_19">
    <path d="M 124.976391 125.57605 
L 132.368391 125.57605 
L 132.368391 120.100955 
L 124.976391 120.100955 
z
" clip-path="url(#p12071e88ce)" style="fill: url(#h1afd1c4c50); stroke: #444444; stroke-width: 0.6; stroke-linejoin: miter"/>
   </g>
   <g id="patch_20">
    <path d="M 158.576391 125.57605 
L 165.968391 125.57605 
L 165.968391 120.100955 
L 158.576391 120.100955 
z
" clip-path="url(#p12071e88ce)" style="fill: url(#h1afd1c4c50); stroke: #444444; stroke-width: 0.6; stroke-linejoin: miter"/>
   </g>
   <g id="patch_21">
    <path d="M 192.176391 125.57605 
L 199.568391 125.57605 
L 199.568391 103.67567 
L 192.176391 103.67567 
z
" clip-path="url(#p12071e88ce)" style="fill: url(#h1afd1c4c50); stroke: #444444; stroke-width: 0.6; stroke-linejoin: miter"/>
   </g>
   <g id="patch_22">
    <path d="M 225.776391 125.57605 
L 233.168391 125.57605 
L 233.168391 125.57605 
L 225.776391 125.57605 
z
" clip-path="url(#p12071e88ce)" style="fill: url(#h1afd1c4c50); stroke: #444444; stroke-width: 0.6; stroke-linejoin: miter"/>
   </g>
   <g id="text_18">
    <text style="font-size: 7.5px; font-family: 'Times New Roman', 'Times', 'Computer Modern Roman', serif; text-anchor: middle; fill: #2c2c2c" x="121.280391" y="101.250109" transform="rotate(-0 121.280391 101.250109)">4</text>
   </g>
   <g id="text_19">
    <text style="font-size: 7.5px; font-family: 'Times New Roman', 'Times', 'Computer Modern Roman', serif; text-anchor: middle; fill: #2c2c2c" x="154.880391" y="90.299919" transform="rotate(-0 154.880391 90.299919)">6</text>
   </g>
   <g id="text_20">
    <text style="font-size: 7.5px; font-family: 'Times New Roman', 'Times', 'Computer Modern Roman', serif; text-anchor: middle; fill: #2c2c2c" x="188.480391" y="46.499159" transform="rotate(-0 188.480391 46.499159)">14</text>
   </g>
   <g id="text_21">
    <text style="font-size: 7.5px; font-family: 'Times New Roman', 'Times', 'Computer Modern Roman', serif; text-anchor: middle; fill: #2c2c2c" x="222.080391" y="106.725204" transform="rotate(-0 222.080391 106.725204)">3</text>
   </g>
   <g id="line2d_25">
    <path d="M 54.080391 125.57605 
L 87.680391 125.57605 
L 121.280391 103.67567 
L 154.880391 92.72548 
L 188.480391 48.92472 
L 222.080391 109.150765 
" clip-path="url(#p12071e88ce)" style="fill: none; stroke: #2c2c2c; stroke-linecap: square"/>
    <defs>
     <path id="m97679ecaf0" d="M 0 1.5 
C 0.397805 1.5 0.77937 1.341951 1.06066 1.06066 
C 1.341951 0.77937 1.5 0.397805 1.5 0 
C 1.5 -0.397805 1.341951 -0.77937 1.06066 -1.06066 
C 0.77937 -1.341951 0.397805 -1.5 0 -1.5 
C -0.397805 -1.5 -0.77937 -1.341951 -1.06066 -1.06066 
C -1.341951 -0.77937 -1.5 -0.397805 -1.5 0 
C -1.5 0.397805 -1.341951 0.77937 -1.06066 1.06066 
C -0.77937 1.341951 -0.397805 1.5 0 1.5 
z
" style="stroke: #2c2c2c"/>
    </defs>
    <g clip-path="url(#p12071e88ce)">
     <use xlink:href="#m97679ecaf0" x="54.080391" y="125.57605" style="fill: #2c2c2c; stroke: #2c2c2c"/>
     <use xlink:href="#m97679ecaf0" x="87.680391" y="125.57605" style="fill: #2c2c2c; stroke: #2c2c2c"/>
     <use xlink:href="#m97679ecaf0" x="121.280391" y="103.67567" style="fill: #2c2c2c; stroke: #2c2c2c"/>
     <use xlink:href="#m97679ecaf0" x="154.880391" y="92.72548" style="fill: #2c2c2c; stroke: #2c2c2c"/>
     <use xlink:href="#m97679ecaf0" x="188.480391" y="48.92472" style="fill: #2c2c2c; stroke: #2c2c2c"/>
     <use xlink:href="#m97679ecaf0" x="222.080391" y="109.150765" style="fill: #2c2c2c; stroke: #2c2c2c"/>
    </g>
   </g>
   <g id="legend_1">
    <g id="line2d_26">
     <path d="M 41.120391 13.2 
L 45.920391 13.2 
L 50.720391 13.2 
" style="fill: none; stroke: #2c2c2c; stroke-linecap: square"/>
     <g>
      <use xlink:href="#m97679ecaf0" x="45.920391" y="13.2" style="fill: #2c2c2c; stroke: #2c2c2c"/>
     </g>
    </g>
    <g id="text_22">
     <text style="font-size: 8px; font-family: 'Times New Roman', 'Times', 'Computer Modern Roman', serif; text-anchor: start" x="57.120391" y="16" transform="rotate(-0 57.120391 16)">Total papers</text>
    </g>
    <g id="patch_23">
     <path d="M 41.120391 27.31125 
L 50.720391 27.31125 
L 50.720391 21.71125 
L 41.120391 21.71125 
z
" style="fill: #1f77b4; stroke: #444444; stroke-width: 0.6; stroke-linejoin: miter"/>
    </g>
    <g id="text_23">
     <text style="font-size: 8px; font-family: 'Times New Roman', 'Times', 'Computer Modern Roman', serif; text-anchor: start" x="57.120391" y="27.31125" transform="rotate(-0 57.120391 27.31125)">Accessible</text>
    </g>
    <g id="patch_24">
     <path d="M 104.322891 16 
L 113.922891 16 
L 113.922891 10.4 
L 104.322891 10.4 
z
" style="fill: url(#h84c9d1fc48); stroke: #444444; stroke-width: 0.6; stroke-linejoin: miter"/>
    </g>
    <g id="text_24">
     <text style="font-size: 8px; font-family: 'Times New Roman', 'Times', 'Computer Modern Roman', serif; text-anchor: start" x="120.322891" y="16" transform="rotate(-0 120.322891 16)">Provided but not accessible</text>
    </g>
    <g id="patch_25">
     <path d="M 104.322891 27.31125 
L 113.922891 27.31125 
L 113.922891 21.71125 
L 104.322891 21.71125 
z
" style="fill: url(#h1afd1c4c50); stroke: #444444; stroke-width: 0.6; stroke-linejoin: miter"/>
    </g>
    <g id="text_25">
     <text style="font-size: 8px; font-family: 'Times New Roman', 'Times', 'Computer Modern Roman', serif; text-anchor: start" x="120.322891" y="27.31125" transform="rotate(-0 120.322891 27.31125)">Not provided</text>
    </g>
   </g>
  </g>
 </g>
 <defs>
  <clipPath id="p12071e88ce">
   <rect x="33.920391" y="37.97453" width="208.32" height="87.60152"/>
  </clipPath>
 </defs>
 <defs>
  <pattern id="h84c9d1fc48" patternUnits="userSpaceOnUse" x="0" y="0" width="72" height="72">
   <rect x="0" y="0" width="73" height="73" fill="#7f7f7f"/>
   <path d="M -36 36 
L 36 -36 
M -30 42 
L 42 -30 
M -24 48 
L 48 -24 
M -18 54 
L 54 -18 
M -12 60 
L 60 -12 
M -6 66 
L 66 -6 
M 0 72 
L 72 0 
M 6 78 
L 78 6 
M 12 84 
L 84 12 
M 18 90 
L 90 18 
M 24 96 
L 96 24 
M 30 102 
L 102 30 
M 36 108 
L 108 36 
" style="fill: #444444; stroke: #444444; stroke-width: 1.0; stroke-linecap: butt; stroke-linejoin: miter"/>
  </pattern>
  <pattern id="h1afd1c4c50" patternUnits="userSpaceOnUse" x="0" y="0" width="72" height="72">
   <rect x="0" y="0" width="73" height="73" fill="#c7c7c7"/>
   <path d="M -36 36 
L 36 108 
M -24 24 
L 48 96 
M -12 12 
L 60 84 
M 0 0 
L 72 72 
M 12 -12 
L 84 60 
M 24 -24 
L 96 48 
M 36 -36 
L 108 36 
" style="fill: #444444; stroke: #444444; stroke-width: 1.0; stroke-linecap: butt; stroke-linejoin: miter"/>
  </pattern>
 </defs>
</svg>
